# xmcd
#
# Track frame offsets:
#	150
#	14380
#	42591
#	55487
#	71244
#	98192
#	122764
#	147570
#	172920
#	187189
#	203769
#
# Disc length: 3140 seconds
#
# Revision: 1
# Processed by: cddbd v1.4b41PL1 Copyright (c) Steve Scherf et al.
# Submitted via: audiograbber 1.80
#
DISCID=aa0c420b
DTITLE=Sheba and the Rythm Kings - He Calls Me Miss Good 'n' Plenty
DYEAR=1900
DGENRE=
TTITLE0=Dance, Jump 'n Shout
TTITLE1=Real Good Woman
TTITLE2=Nothin' Like You
TTITLE3=Miss Good 'n' Plenty
TTITLE4=Can't Help Lovin My Man
TTITLE5=Good Good Lovin'
TTITLE6=Forbidden Dance of Love
TTITLE7=Tell Me
TTITLE8=Oh, So Good
TTITLE9=Nature of the  Beast
TTITLE10=Blues of My Soul
EXTD=Copyright 1999 Sheba and the Rythm Kings
EXTT0=
EXTT1=
EXTT2=
EXTT3=
EXTT4=
EXTT5=
EXTT6=
EXTT7=
EXTT8=
EXTT9=
EXTT10=
PLAYORDER=
